<?xml version="1.0" encoding="UTF-8"?><svg xmlns="http://www.w3.org/2000/svg" id="Calque_2" data-name="Calque 2" viewBox="0 0 32 32">
  <defs>
    <style>.cls-1 {
  fill: #fff;
}

.cls-2 {
  fill: #1a1a1a;
}
</style>
  </defs>
  <g id="Calque_1-2" data-name="Calque 1">
    <g>
      <circle class="cls-2" cx="16" cy="16" r="16"/>
      <g>
        <path class="cls-1" d="M8.23,16.56l-1.18.37v3.62c0,.95-.47,1.01-2.07,1.01-.02-.22-.13-.55-.25-.78.26.01.5.01.72.01.84,0,.84-.01.84-.25v-3.36l-1.37.42c-.01.1-.07.16-.16.19l-.29-.94c.49-.12,1.12-.29,1.81-.48v-2.71h-1.7v-.76h1.7v-2.51l1.01.06c-.01.1-.07.14-.24.17v2.28h1.45v.76h-1.45v2.49l1.09-.3.08.7ZM14.27,16.34l.52.23s-.07.08-.12.11c-.44,1.23-1.21,2.22-2.16,2.97.91.59,2.02,1.01,3.29,1.24-.18.17-.38.49-.49.7-1.34-.28-2.51-.77-3.45-1.46-1.06.68-2.29,1.14-3.59,1.43-.06-.22-.24-.55-.38-.72,1.2-.23,2.35-.62,3.36-1.21-.72-.65-1.3-1.44-1.7-2.36l.62-.19h-1.2v-.7h5.18l.13-.02ZM13.19,13.95c.43-.55.97-1.49,1.27-2.13l.89.34c-.04.07-.12.11-.25.11-.31.55-.82,1.34-1.25,1.88h1.66v2.06h-.76v-1.37h-5.7v1.35h-.73v-2.05h5.3l-.43-.19ZM15.11,11.07s-.07.04-.13.04c-.02,0-.06,0-.1-.01-1.49.43-4.13.74-6.34.9-.01-.19-.11-.47-.19-.64,2.16-.17,4.77-.49,6.15-.92l.61.64ZM9.64,14.03c-.1-.44-.41-1.13-.73-1.64l.64-.22c.32.49.66,1.16.76,1.61l-.66.25ZM10.24,17.05c.37.83.92,1.55,1.64,2.13.77-.56,1.4-1.27,1.81-2.13h-3.45ZM11.58,13.89c-.05-.48-.25-1.21-.49-1.76l.66-.16c.25.55.48,1.27.53,1.73l-.7.19Z"/>
        <path class="cls-1" d="M25.29,16.07l.6.35c-.02.06-.1.1-.17.12-.64,1.26-1.61,2.25-2.78,3.02,1.32.61,2.88,1.03,4.59,1.25-.18.19-.4.54-.52.78-1.85-.28-3.5-.79-4.89-1.55-1.42.74-3.06,1.24-4.77,1.55-.1-.22-.31-.58-.48-.76,1.6-.24,3.14-.65,4.46-1.27-1-.67-1.81-1.49-2.42-2.47l.64-.26h-1.22v-.72h6.81l.16-.04ZM17.67,14.64v1.81h-.77v-2.53h1.96c-.16-.46-.5-1.1-.83-1.6l.72-.22c.36.52.74,1.21.89,1.66l-.46.16h5.08c.42-.61.92-1.51,1.21-2.13l.96.36c-.04.07-.13.1-.25.1-.26.49-.68,1.14-1.07,1.68h2.17v2.53h-.79v-1.81h-8.83ZM26.58,11.12s-.07.04-.13.04c-.04,0-.07-.01-.12-.02-2.19.44-5.96.77-9.12.9-.01-.2-.12-.5-.19-.7,3.13-.13,6.88-.47,8.95-.91l.61.7ZM19.65,16.83c.59.92,1.44,1.69,2.49,2.31,1.02-.6,1.87-1.37,2.45-2.31h-4.94ZM21.93,11.92c.29.56.59,1.33.67,1.79l-.78.2c-.07-.48-.35-1.25-.62-1.84l.73-.16Z"/>
      </g>
    </g>
  </g>
</svg>